<?xml version="1.0" encoding="utf-8"?>
<!-- Generator: Adobe Illustrator 21.0.2, SVG Export Plug-In . SVG Version: 6.00 Build 0)  -->
<svg version="1.1" xmlns="http://www.w3.org/2000/svg" xmlns:xlink="http://www.w3.org/1999/xlink" x="0px" y="0px"
	 viewBox="0 0 1920 1080" style="enable-background:new 0 0 1920 1080;" xml:space="preserve">
<style type="text/css">
	.st0{opacity:0.8;}
	.st1{fill:#FFD41D;}
	.st2{opacity:0.72;fill:none;stroke:#FFD41D;stroke-width:35.8974;stroke-miterlimit:10;}
	.st3{opacity:0.72;fill:none;stroke:#FFD41D;stroke-width:21.544;stroke-miterlimit:10;}
</style>
<g id="Calque_2">
</g>
<g id="Calque_1">
	<g class="st0">
		<path class="st1" d="M1421.6,622.8v366.2c0,3.9,2.1,7.6,5.5,9.5l317.2,183.1c3.4,2,7.6,2,11,0l317.2-183.1c3.4-2,5.5-5.6,5.5-9.5
			V622.8c0-3.9-2.1-7.6-5.5-9.5l-317.2-183.1c-3.4-2-7.6-2-11,0l-317.2,183.1C1423.7,615.3,1421.6,618.9,1421.6,622.8z"/>
	</g>
	<path class="st2" d="M1336.6,479.7V837c0,3.9,2.1,7.6,5.5,9.5l309.5,178.7c3.4,2,7.6,2,11,0L1972,846.5c3.4-2,5.5-5.6,5.5-9.5
		V479.7c0-3.9-2.1-7.6-5.5-9.5l-309.5-178.7c-3.4-2-7.6-2-11,0l-309.5,178.7C1338.7,472.1,1336.6,475.7,1336.6,479.7z"/>
	<g class="st0">
		<path class="st1" d="M506.3,376.9V162.1c0-3.9-2.1-7.6-5.5-9.5L314.8,45.3c-3.4-2-7.6-2-11,0L117.9,152.6c-3.4,2-5.5,5.6-5.5,9.5
			v214.7c0,3.9,2.1,7.6,5.5,9.5l185.9,107.4c3.4,2,7.6,2,11,0l185.9-107.4C504.2,384.4,506.3,380.8,506.3,376.9z"/>
	</g>
	<path class="st3" d="M557.3,462.8V253.4c0-3.9-2.1-7.6-5.5-9.5L370.5,139.2c-3.4-2-7.6-2-11,0L178.2,243.9c-3.4,2-5.5,5.6-5.5,9.5
		v209.4c0,3.9,2.1,7.6,5.5,9.5L359.5,577c3.4,2,7.6,2,11,0l181.3-104.7C555.2,470.3,557.3,466.7,557.3,462.8z"/>
	<path class="st3" d="M326.4,844.9V635.5c0-3.9-2.1-7.6-5.5-9.5L139.6,521.3c-3.4-2-7.6-2-11,0L-52.7,626c-3.4,2-5.5,5.6-5.5,9.5
		v209.4c0,3.9,2.1,7.6,5.5,9.5l181.3,104.7c3.4,2,7.6,2,11,0l181.3-104.7C324.3,852.4,326.4,848.8,326.4,844.9z"/>
</g>
</svg>
