<?xml version="1.0" encoding="utf-8"?>
<!-- Generator: Adobe Illustrator 21.0.2, SVG Export Plug-In . SVG Version: 6.00 Build 0)  -->
<svg version="1.1" id="Calque_1" xmlns="http://www.w3.org/2000/svg" xmlns:xlink="http://www.w3.org/1999/xlink" x="0px" y="0px"
	 viewBox="0 0 1142.9 132" style="enable-background:new 0 0 1142.9 132;" xml:space="preserve">
<style type="text/css">
	.st0{fill:#F7F7F7;}
</style>
<path class="st0" d="M330.1,70.6c2.5-1.4,2.5-5,0-6.4l-21.8-12.6l-26.6-15.4c-0.4-0.3-0.9-0.4-1.4-0.4H40.5c-1.6,0-2.9,1.3-2.9,2.9
	V96c0,1.6,1.3,2.9,2.9,2.9h239.8c0.5,0,1-0.1,1.4-0.4L330.1,70.6z"/>
<path class="st0" d="M591.5,70.2l-49.8,28.7H304.1L350,72.4c3.9-2.2,3.9-7.8,0-10l-18.6-10.7l-27.3-15.8h237.7L569,51.7l22.5,13
	C593.7,65.9,593.7,69,591.5,70.2z"/>
<path class="st0" d="M853.5,70.2l-49.8,28.7H566.1L612,72.4c3.9-2.2,3.9-7.8,0-10l-18.6-10.7l-27.3-15.8h237.7L831,51.7l22.5,13
	C855.7,65.9,855.7,69,853.5,70.2z"/>
<path class="st0" d="M1115.5,70.2l-49.8,28.7H828.1L874,72.4c3.9-2.2,3.9-7.8,0-10l-18.6-10.7l-27.3-15.8h237.7l27.3,15.8l22.5,13
	C1117.7,65.9,1117.7,69,1115.5,70.2z"/>
</svg>
