<?xml version="1.0" encoding="UTF-8" standalone="no"?>
<!-- Created with Inkscape (http://www.inkscape.org/) -->

<svg
   xmlns:dc="http://purl.org/dc/elements/1.1/"
   xmlns:cc="http://creativecommons.org/ns#"
   xmlns:rdf="http://www.w3.org/1999/02/22-rdf-syntax-ns#"
   xmlns:svg="http://www.w3.org/2000/svg"
   xmlns="http://www.w3.org/2000/svg"
   version="1.1"
   width="300"
   height="208.06726"
   id="svg22880">
  <defs
     id="defs22882">
    <clipPath
       id="clipPath7358">
      <path
         d="m 390.52,170.047 75.118,0 0,28.347 -75.118,0 L 390.52,170.047 Z"
         id="path7360" />
    </clipPath>
  </defs>
  <metadata
     id="metadata22885">
    <rdf:RDF>
      <cc:Work
         rdf:about="">
        <dc:format>image/svg+xml</dc:format>
        <dc:type
           rdf:resource="http://purl.org/dc/dcmitype/StillImage" />
        <cc:license
           rdf:resource="" />
        <dc:title></dc:title>
      </cc:Work>
    </rdf:RDF>
  </metadata>
  <g
     transform="translate(-243.80493,-259.79888)"
     id="layer1">
    <g
       transform="matrix(8.4309473,0,0,-8.4309473,-3215.3023,1916.9901)"
       id="g7354">
      <g
         clip-path="url(#clipPath7358)"
         id="g7356">
        <g
           transform="translate(428.0269,191.3445)"
           id="g7362">
          <path
             d="m 0,0 c -0.521,0 -0.944,0.423 -0.944,0.944 0,0.52 0.423,0.943 0.944,0.943 0.521,0 0.943,-0.423 0.943,-0.943 C 0.943,0.423 0.521,0 0,0 m -0.007,5.216 c -2.36,0 -4.273,-1.913 -4.273,-4.272 0,-2.36 1.913,-4.273 4.273,-4.273 2.359,0 4.272,1.913 4.272,4.273 0,2.359 -1.913,4.272 -4.272,4.272"
             id="path7364"
             style="fill:#18589f;fill-opacity:1;fill-rule:nonzero;stroke:none" />
        </g>
        <g
           transform="translate(431.0455,179.5372)"
           id="g7366">
          <path
             d="M 0,0 0.17,0.083 C 0.34,0.171 1.183,0.638 1.016,1.229 0.888,1.682 0.315,1.865 0.315,1.865 c 0,0 -3.56,1.067 -5.77,1.787 -2.286,0.743 -2.355,2.377 -2.375,2.674 -0.127,1.802 1.242,2.552 1.428,2.646 l 0.107,0.052 0.04,-0.065 -0.076,-0.04 C -6.447,8.86 -7.126,8.482 -7.033,7.987 c 0.091,-0.479 0.687,-0.641 0.687,-0.641 0,0 3.56,-1.066 5.769,-1.786 C 1.709,4.816 1.778,3.183 1.799,2.886 1.938,0.898 0.462,0.129 0.22,0.017 L 0.047,-0.067 0,0 Z"
             id="path7368"
             style="fill:#18589f;fill-opacity:1;fill-rule:nonzero;stroke:none" />
        </g>
        <g
           transform="translate(413.0009,177.73441)"
           id="g7370">
          <path
             d="m 0,0 c -0.204,0.283 -0.555,0.453 -0.897,0.453 -0.292,0 -0.574,-0.106 -0.79,-0.296 -0.236,-0.208 -0.394,-0.545 -0.394,-0.86 0,-0.286 0.129,-0.591 0.328,-0.794 0.231,-0.246 0.555,-0.384 0.883,-0.384 0.403,0 0.814,0.249 0.999,0.614 l -1.428,0 0,0.597 2.228,0 0,-0.074 c 0,-0.999 -0.841,-1.753 -1.817,-1.753 -0.985,0 -1.826,0.768 -1.826,1.771 0,1.009 0.836,1.794 1.817,1.794 0.693,0 1.396,-0.411 1.655,-1.068 L 0,0 Z"
             id="path7372"
             style="fill:#877b6f;fill-opacity:1;fill-rule:nonzero;stroke:none" />
        </g>
        <g
           transform="translate(417.5009,178.8027)"
           id="g7374">
          <path
             d="m 0,0 c -0.984,0 -1.78,-0.796 -1.78,-1.794 0,-0.984 0.808,-1.771 1.785,-1.771 0.975,0 1.779,0.791 1.779,1.776 C 1.784,-0.791 0.984,0 0,0 M 1.151,-1.789 C 1.151,-2.427 0.629,-2.95 0,-2.95 c -0.625,0 -1.146,0.527 -1.146,1.156 0,0.647 0.508,1.179 1.146,1.165 l -0.005,0.014 c 0.638,0 1.156,-0.523 1.156,-1.174"
             id="path7376"
             style="fill:#877b6f;fill-opacity:1;fill-rule:nonzero;stroke:none" />
        </g>
        <g
           transform="translate(422.2182,177.4252)"
           id="g7378">
          <path
             d="m 0,0 0,0.698 0.115,0 C 0.25,0.698 0.411,0.721 0.531,0.665 0.656,0.614 0.744,0.503 0.744,0.365 0.744,0.236 0.67,0.107 0.55,0.051 0.43,-0.005 0.254,0 0.121,0 L 0,0 z m -0.634,-2.104 0.856,0 c 0.328,0.01 0.675,0.028 0.947,0.227 0.265,0.199 0.417,0.481 0.417,0.813 0,0.389 -0.209,0.708 -0.583,0.828 0.25,0.12 0.374,0.383 0.374,0.652 0,0.319 -0.198,0.624 -0.48,0.767 -0.287,0.144 -0.601,0.13 -0.911,0.13 l -0.62,0 L -0.634,-2.104 Z M 0,-1.489 l 0,0.874 0.277,0 c 0.153,0 0.305,0.005 0.449,-0.069 C 0.874,-0.768 0.952,-0.87 0.952,-1.036 0.952,-1.18 0.901,-1.29 0.786,-1.369 0.62,-1.48 0.448,-1.489 0.263,-1.489 L 0,-1.489 Z"
             id="path7380"
             style="fill:#877b6f;fill-opacity:1;fill-rule:nonzero;stroke:none" />
        </g>
        <g
           transform="translate(426.3248,178.7382)"
           id="g7382">
          <path
             d="m 0,0 1.836,0 0,-0.616 -1.202,0 0,-0.785 1.151,0 0,-0.615 -1.151,0 0,-0.786 1.202,0 0,-0.615 L 0,-3.417 0,0 Z"
             id="path7384"
             style="fill:#877b6f;fill-opacity:1;fill-rule:nonzero;stroke:none" />
        </g>
        <g
           transform="translate(430.85181,178.7382)"
           id="g7386">
          <path
             d="m 0,0 0.634,0 0,-2.802 1.044,0 0,-0.615 L 0,-3.417 0,0 Z"
             id="path7388"
             style="fill:#877b6f;fill-opacity:1;fill-rule:nonzero;stroke:none" />
        </g>
        <path
           d="m 434.883,178.738 0.632,0 0,-3.417 -0.632,0 L 434.883,178.738 Z"
           id="path7390"
           style="fill:#877b6f;fill-opacity:1;fill-rule:nonzero;stroke:none" />
        <g
           transform="translate(438.3618,178.7382)"
           id="g7392">
          <path
             d="m 0,0 0.713,0 1.423,-2.497 0,2.497 0.633,0 0,-3.417 -0.702,0 -1.434,2.488 0,-2.488 L 0,-3.417 0,0 Z"
             id="path7394"
             style="fill:#877b6f;fill-opacity:1;fill-rule:nonzero;stroke:none" />
        </g>
        <g
           transform="translate(444.31709,176.2829)"
           id="g7396">
          <path
             d="m 0,0 c 0,-0.273 0.223,-0.43 0.476,-0.43 0.241,0 0.445,0.18 0.445,0.43 0,0.375 -0.314,0.486 -0.596,0.578 -0.228,0.074 -0.421,0.139 -0.593,0.314 -0.166,0.172 -0.268,0.421 -0.268,0.657 0,0.559 0.461,0.971 1.008,0.971 0.526,0 1.004,-0.434 0.998,-0.971 l -0.653,0 C 0.808,1.762 0.633,1.905 0.435,1.905 0.227,1.905 0.092,1.748 0.097,1.544 0.092,1.295 0.325,1.198 0.527,1.128 0.768,1.045 0.998,0.976 1.192,0.814 1.437,0.619 1.553,0.37 1.553,0.037 c 0,-0.61 -0.503,-1.082 -1.11,-1.082 -0.581,0 -1.105,0.448 -1.105,1.045 L 0,0 Z"
             id="path7398"
             style="fill:#877b6f;fill-opacity:1;fill-rule:nonzero;stroke:none" />
        </g>
        <g
           transform="translate(411.5116,171.9278)"
           id="g7400">
          <path
             d="m 0,0 -1.184,0 0,2.333 0.244,0 0,-2.162 0.94,0 L 0,0 Z"
             id="path7402"
             style="fill:#877b6f;fill-opacity:1;fill-rule:nonzero;stroke:none" />
        </g>
        <g
           transform="translate(411.92149,174.2493)"
           id="g7404">
          <path
             d="m 0,0 0.234,0 -0.239,-0.641 -0.128,0 L 0,0 Z"
             id="path7406"
             style="fill:#877b6f;fill-opacity:1;fill-rule:nonzero;stroke:none" />
        </g>
        <g
           transform="translate(413.66319,174.3492)"
           id="g7408">
          <path
             d="m 0,0 -0.182,0 0.346,0.308 0.325,0 L 0,0 z m 0.377,-1.121 0,-0.169 -0.8,0 0,-0.962 1.051,0 0,-0.169 -1.295,0 0,2.332 1.263,0 0,-0.169 -1.019,0 0,-0.863 L 0.377,-1.121 Z"
             id="path7410"
             style="fill:#877b6f;fill-opacity:1;fill-rule:nonzero;stroke:none" />
        </g>
        <g
           transform="translate(417.2188,172.4864)"
           id="g7412">
          <path
             d="m 0,0 c -0.168,-0.295 -0.531,-0.604 -1.045,-0.604 -0.343,0 -0.652,0.113 -0.85,0.295 -0.232,0.209 -0.373,0.512 -0.373,0.92 0,0.387 0.138,0.691 0.363,0.898 0.223,0.203 0.525,0.311 0.871,0.311 0.49,0 0.823,-0.239 0.98,-0.56 L -0.305,1.21 c -0.122,0.243 -0.348,0.446 -0.73,0.446 -0.499,0 -0.982,-0.298 -0.982,-1.05 0,-0.739 0.473,-1.048 0.97,-1.048 0.433,0 0.695,0.309 0.796,0.502 L 0,0 Z"
             id="path7414"
             style="fill:#877b6f;fill-opacity:1;fill-rule:nonzero;stroke:none" />
        </g>
        <g
           transform="translate(417.69501,173.09351)"
           id="g7416">
          <path
             d="m 0,0 c 0,-0.833 0.559,-1.212 1.222,-1.212 0.662,0 1.221,0.379 1.221,1.212 0,0.835 -0.559,1.213 -1.221,1.213 C 0.559,1.213 0,0.835 0,0.003 L 0,0 z m 1.222,1.053 c 0.498,0 0.971,-0.311 0.971,-1.05 0,-0.736 -0.473,-1.048 -0.971,-1.048 -0.499,0 -0.971,0.312 -0.971,1.048 0,0.739 0.472,1.05 0.968,1.05 L 1.222,1.053 Z"
             id="path7418"
             style="fill:#877b6f;fill-opacity:1;fill-rule:nonzero;stroke:none" />
        </g>
        <g
           transform="translate(422.0479,171.9278)"
           id="g7420">
          <path
             d="m 0,0 -1.184,0 0,2.333 0.244,0 0,-2.162 0.94,0 L 0,0 Z"
             id="path7422"
             style="fill:#877b6f;fill-opacity:1;fill-rule:nonzero;stroke:none" />
        </g>
        <g
           transform="translate(423.849,173.2281)"
           id="g7424">
          <path
             d="m 0,0 0,-0.169 -0.799,0 0,-0.962 1.05,0 0,-0.169 -1.295,0 0,2.332 1.264,0 0,-0.169 -1.019,0 L -0.799,0 0,0 Z"
             id="path7426"
             style="fill:#877b6f;fill-opacity:1;fill-rule:nonzero;stroke:none" />
        </g>
        <g
           transform="translate(426.49471,171.9278)"
           id="g7428">
          <path
             d="m 0,0 c 0.825,0 1.169,0.424 1.169,1.171 0,0.765 -0.368,1.162 -1.177,1.162 l -0.738,0 L -0.746,0 0,0 z m -0.502,0.168 0,1.998 0.482,0 c 0.664,0 0.939,-0.361 0.939,-0.999 0,-0.662 -0.306,-0.999 -0.936,-0.999 L -0.502,0.168 Z"
             id="path7430"
             style="fill:#877b6f;fill-opacity:1;fill-rule:nonzero;stroke:none" />
        </g>
        <g
           transform="translate(429.5732,173.2281)"
           id="g7432">
          <path
             d="m 0,0 0,-0.169 -0.8,0 0,-0.962 1.05,0 0,-0.169 -1.295,0 0,2.332 1.263,0 0,-0.169 -1.018,0 L -0.8,0 0,0 Z"
             id="path7434"
             style="fill:#877b6f;fill-opacity:1;fill-rule:nonzero;stroke:none" />
        </g>
        <g
           transform="translate(432.5676,171.9278)"
           id="g7436">
          <path
             d="m 0,0 -1.184,0 0,2.333 0.244,0 0,-2.162 0.94,0 L 0,0 Z"
             id="path7438"
             style="fill:#877b6f;fill-opacity:1;fill-rule:nonzero;stroke:none" />
        </g>
        <g
           transform="translate(432.9877,174.18559)"
           id="g7440">
          <path
             d="m 0,0 0.234,0 -0.238,-0.641 -0.128,0 L 0,0 Z"
             id="path7442"
             style="fill:#877b6f;fill-opacity:1;fill-rule:nonzero;stroke:none" />
        </g>
        <path
           d="m 434.135,174.26 0.248,0 0,-2.333 -0.248,0 L 434.135,174.26 Z"
           id="path7444"
           style="fill:#877b6f;fill-opacity:1;fill-rule:nonzero;stroke:none" />
        <g
           transform="translate(436.7939,172.1763)"
           id="g7446">
          <path
             d="m 0,0 c 0.142,0.384 0.421,1.057 0.85,2.084 l 0.376,0 0,-2.333 -0.231,0 c 0,1.058 0.002,1.771 0.012,2.149 l -0.013,0 C 0.85,1.524 0.561,0.828 0.109,-0.249 l -0.233,0 C -0.563,0.811 -0.859,1.523 -1.008,1.9 l -0.009,0 c 0.009,-0.378 0.01,-1.089 0.01,-2.149 l -0.229,0 0,2.333 0.379,0 C -0.432,1.05 -0.152,0.383 -0.01,0 L 0,0 Z"
             id="path7448"
             style="fill:#877b6f;fill-opacity:1;fill-rule:nonzero;stroke:none" />
        </g>
        <g
           transform="translate(440.34821,172.6653)"
           id="g7450">
          <path
             d="m 0,0 0.299,-0.737 0.275,0 -0.991,2.332 -0.304,0 -0.988,-2.332 0.273,0 L -1.14,0 0,0 z m -0.073,0.166 -0.993,0 0.249,0.636 c 0.08,0.201 0.161,0.407 0.238,0.629 l 0.017,0 c 0.08,-0.227 0.163,-0.43 0.243,-0.637 L -0.073,0.166 Z"
             id="path7452"
             style="fill:#877b6f;fill-opacity:1;fill-rule:nonzero;stroke:none" />
        </g>
        <g
           transform="translate(443.7092,172.1759)"
           id="g7454">
          <path
             d="m 0,0 c -0.264,-0.175 -0.608,-0.294 -1.039,-0.294 -0.761,0 -1.305,0.451 -1.305,1.212 0,0.865 0.672,1.213 1.316,1.213 0.442,0 0.766,-0.164 1.013,-0.458 L -0.264,1.598 c -0.193,0.242 -0.395,0.371 -0.754,0.371 -0.465,0 -1.075,-0.278 -1.075,-1.051 0,-0.665 0.467,-1.05 1.075,-1.05 0.292,0 0.577,0.073 0.774,0.199 l 0,0.612 -0.702,0 0,0.165 L 0,0.844 0,0 Z"
             id="path7456"
             style="fill:#877b6f;fill-opacity:1;fill-rule:nonzero;stroke:none" />
        </g>
        <g
           transform="translate(445.5966,173.2281)"
           id="g7458">
          <path
             d="m 0,0 0,-0.169 -0.8,0 0,-0.962 1.049,0 0,-0.169 -1.294,0 0,2.332 1.262,0 0,-0.169 -1.017,0 L -0.8,0 0,0 Z"
             id="path7460"
             style="fill:#877b6f;fill-opacity:1;fill-rule:nonzero;stroke:none" />
        </g>
      </g>
    </g>
  </g>
</svg>
