<?xml version="1.0" encoding="utf-8"?>
<!-- Generator: Adobe Illustrator 21.0.0, SVG Export Plug-In . SVG Version: 6.00 Build 0)  -->
<svg version="1.1" id="Calque_1" xmlns="http://www.w3.org/2000/svg" xmlns:xlink="http://www.w3.org/1999/xlink" x="0px" y="0px"
	 viewBox="0 0 400 400" style="enable-background:new 0 0 400 400;" xml:space="preserve">
<style type="text/css">
	.st0{fill:#D3D3D3;}
</style>
<path class="st0" d="M361.6,255.8c-3.4-3.2-7.4-4.8-12-4.8H241.3V16.9c0-8.2-3.9-13.5-11.7-15.9c-7.8-2.4-14.1-0.3-18.7,6.4
	L36.8,258c-3.7,5.6-4.1,11.4-1.1,17.3c3.2,6,8.1,8.9,14.8,8.9h140.8l16.8,0v98.9c0,4.7,1.6,8.7,4.8,12c3.4,3.2,7.3,4.8,11.7,4.8
	c4.7,0,8.7-1.6,12-4.8c3.2-3.4,4.8-7.4,4.8-12v-98.9l108.2,0c4.7,0,8.7-1.6,12-4.8c3.2-3.4,4.8-7.3,4.8-11.7
	C366.3,263.2,364.7,259.2,361.6,255.8z M82.3,251.1L208.1,70.3v180.8H82.3z"/>
</svg>
