<?xml version="1.0" encoding="utf-8"?>
<!-- Generator: Adobe Illustrator 21.0.0, SVG Export Plug-In . SVG Version: 6.00 Build 0)  -->
<svg version="1.1" xmlns="http://www.w3.org/2000/svg" xmlns:xlink="http://www.w3.org/1999/xlink" x="0px" y="0px"
	 viewBox="0 0 500 500" style="enable-background:new 0 0 500 500;" xml:space="preserve">
<style type="text/css">
	.st0{fill:url(#SVGID_1_);stroke:#55FFF3;stroke-width:4.2716;stroke-miterlimit:10;}
	.st1{fill:#55FFF3;}
	.st2{opacity:0.1;}
	.st3{fill:#0F153C;}
	.st4{fill:url(#SVGID_2_);}
	.st5{fill:url(#SVGID_3_);}
	.st6{fill:url(#SVGID_4_);}
	.st7{fill:url(#SVGID_5_);}
	.st8{fill:url(#SVGID_6_);}
	.st9{fill:url(#SVGID_7_);}
	.st10{fill:url(#SVGID_8_);}
	.st11{fill:url(#SVGID_9_);}
	.st12{fill:url(#SVGID_10_);}
	.st13{fill:none;stroke:#55FFF3;stroke-width:3.1875;stroke-linecap:round;stroke-miterlimit:10;}
</style>
<g id="Calque_1">
	<linearGradient id="SVGID_1_" gradientUnits="userSpaceOnUse" x1="159.6857" y1="137.2943" x2="279.4989" y2="257.1076">
		<stop  offset="0" style="stop-color:#0F155F"/>
		<stop  offset="1.776189e-02" style="stop-color:#0F155E"/>
		<stop  offset="0.6289" style="stop-color:#0F1545"/>
		<stop  offset="1" style="stop-color:#0F153C"/>
	</linearGradient>
	<path class="st0" d="M304.3,197.2c0,46.8-37.9,84.7-84.7,84.7s-84.7-37.9-84.7-84.7s37.9-84.7,84.7-84.7c18.3,0,35.2,5.8,49,15.6
		c5.1,3.6,9.7,7.8,13.9,12.4c2.6,2.9,5.1,6,7.3,9.3C299,163.4,304.3,179.7,304.3,197.2z"/>
	<g>
		<polygon class="st1" points="218.8,191.5 269,152.5 223.6,197.1 		"/>
	</g>
	<g>
		<polygon class="st1" points="220.4,199.8 170.2,238.9 215.6,194.3 		"/>
	</g>
</g>
<g id="Calque_2">
	<g class="st2">
		<image style="overflow:visible;" width="100" height="105" xlink:href="95B06F2A.png"  transform="matrix(1 0 0 1 269 235)">
		</image>
	</g>
	<g>
		
			<image style="overflow:visible;opacity:0.14;" width="169" height="81" xlink:href="95B06F2E.png"  transform="matrix(1 0 0 1 209.4374 211.4374)">
		</image>
		<g>
			<path class="st1" d="M335.4,279.5h-87.5c-16.5,0-30-13.5-30-30v0c0-16.5,13.5-30,30-30h87.5c16.5,0,30,13.5,30,30v0
				C365.4,266,351.9,279.5,335.4,279.5z"/>
		</g>
	</g>
	<polygon class="st1" points="304.3,271.3 327.4,303.2 331.4,271.3 	"/>
	<circle class="st3" cx="262.7" cy="251.1" r="6.3"/>
	<circle class="st3" cx="293.8" cy="251.1" r="6.3"/>
	<circle class="st3" cx="324.2" cy="251.1" r="6.3"/>
	<g>
		<linearGradient id="SVGID_2_" gradientUnits="userSpaceOnUse" x1="80.7502" y1="344.2517" x2="437.7552" y2="341.0642">
			<stop  offset="0" style="stop-color:#0F155F"/>
			<stop  offset="1.776189e-02" style="stop-color:#0F155E"/>
			<stop  offset="0.6289" style="stop-color:#0F1545"/>
			<stop  offset="1" style="stop-color:#0F153C"/>
		</linearGradient>
		<path class="st4" d="M105,342.7h14.8v19.1h-4.9l-0.7-4.4c-0.5,0.6-1,1.2-1.6,1.8c-0.6,0.6-1.3,1.2-2.2,1.7c-0.9,0.5-1.9,1-3.1,1.3
			s-2.6,0.5-4.2,0.5c-2.1,0-4.2-0.4-6.2-1.2c-2-0.8-3.7-1.9-5.2-3.5c-1.5-1.5-2.7-3.5-3.6-5.8c-0.9-2.3-1.3-5-1.3-8.2
			c0-2.4,0.3-4.7,1-7c0.7-2.3,1.7-4.3,3.1-6c1.4-1.7,3.2-3.1,5.4-4.2c2.2-1.1,4.7-1.6,7.7-1.6h0.1c2.7,0,5,0.4,6.9,1.2
			c1.9,0.8,3.5,1.8,4.8,3c1.3,1.2,2.2,2.5,2.8,3.9c0.6,1.4,1,2.7,1.1,3.9h-7.4c0-0.3-0.2-0.8-0.5-1.5c-0.3-0.7-0.8-1.3-1.4-2
			c-0.6-0.6-1.4-1.2-2.4-1.7c-1-0.5-2.1-0.7-3.4-0.7c-1.3,0-2.6,0.2-3.8,0.7c-1.2,0.5-2.3,1.2-3.3,2.2c-0.9,1-1.7,2.3-2.2,4
			s-0.8,3.6-0.8,5.8c0,2.4,0.3,4.4,0.9,6c0.6,1.6,1.4,2.8,2.4,3.7c1,0.9,2.1,1.6,3.3,1.9c1.2,0.4,2.5,0.5,3.7,0.5
			c0.4,0,1-0.1,1.8-0.2c0.8-0.1,1.6-0.5,2.5-1c0.9-0.5,1.7-1.3,2.5-2.3c0.8-1,1.4-2.4,1.8-4.2H105V342.7z"/>
		<linearGradient id="SVGID_3_" gradientUnits="userSpaceOnUse" x1="80.757" y1="345.0121" x2="437.762" y2="341.8245">
			<stop  offset="0" style="stop-color:#0F155F"/>
			<stop  offset="1.776189e-02" style="stop-color:#0F155E"/>
			<stop  offset="0.6289" style="stop-color:#0F1545"/>
			<stop  offset="1" style="stop-color:#0F153C"/>
		</linearGradient>
		<path class="st5" d="M157.6,349.4c0,2.3-0.3,4.3-1,6c-0.7,1.7-1.6,3.1-2.9,4.2c-1.3,1.1-2.8,1.9-4.6,2.4c-1.8,0.5-3.8,0.8-6.1,0.8
			c-0.8,0-1.7-0.1-2.7-0.2c-1-0.1-2-0.3-3-0.7c-1-0.3-2-0.8-3-1.3c-1-0.5-1.9-1.3-2.6-2.1c-1-1.1-1.6-2.3-2-3.8
			c-0.4-1.4-0.7-3-0.7-4.8v-23.5h7.6v23c0,1.3,0.2,2.3,0.5,3.2c0.3,0.9,0.8,1.6,1.4,2.2c0.6,0.6,1.3,1,2,1.3
			c0.8,0.3,1.6,0.4,2.4,0.4c2.6,0,4.4-0.6,5.5-1.8c1.1-1.2,1.7-2.8,1.7-5v-23.4h7.6V349.4z"/>
		<linearGradient id="SVGID_4_" gradientUnits="userSpaceOnUse" x1="80.7556" y1="344.8497" x2="437.7606" y2="341.6621">
			<stop  offset="0" style="stop-color:#0F155F"/>
			<stop  offset="1.776189e-02" style="stop-color:#0F155E"/>
			<stop  offset="0.6289" style="stop-color:#0F1545"/>
			<stop  offset="1" style="stop-color:#0F153C"/>
		</linearGradient>
		<path class="st6" d="M174.2,361.8h-7.4v-35.5h7.4V361.8z"/>
		<linearGradient id="SVGID_5_" gradientUnits="userSpaceOnUse" x1="80.7572" y1="345.0356" x2="437.7622" y2="341.848">
			<stop  offset="0" style="stop-color:#0F155F"/>
			<stop  offset="1.776189e-02" style="stop-color:#0F155E"/>
			<stop  offset="0.6289" style="stop-color:#0F1545"/>
			<stop  offset="1" style="stop-color:#0F153C"/>
		</linearGradient>
		<path class="st7" d="M183.6,326.3h15.7c2,0,3.7,0.3,5.2,0.8c1.5,0.5,2.8,1.2,3.9,2.1s2,1.9,2.6,3c0.7,1.2,1.2,2.4,1.6,3.6
			c0.4,1.3,0.7,2.5,0.8,3.8c0.2,1.3,0.2,2.5,0.2,3.6c0,1.3-0.1,2.6-0.3,4c-0.2,1.4-0.5,2.8-0.9,4.2c-0.4,1.4-1,2.7-1.8,4
			c-0.7,1.3-1.6,2.4-2.7,3.3c-1.1,1-2.4,1.7-3.9,2.3c-1.5,0.6-3.2,0.8-5.1,0.8h-15.4V326.3z M190.8,355.7h7.2c1.5,0,2.8-0.3,3.8-1
			c1-0.7,1.8-1.6,2.5-2.7c0.6-1.1,1.1-2.4,1.4-3.8c0.3-1.4,0.4-2.9,0.4-4.3c0-2.6-0.3-4.7-0.8-6.2c-0.6-1.5-1.2-2.7-2-3.4
			c-0.8-0.8-1.7-1.2-2.6-1.4c-1-0.2-1.8-0.3-2.6-0.3h-7.1V355.7z"/>
		<linearGradient id="SVGID_6_" gradientUnits="userSpaceOnUse" x1="80.7607" y1="345.4273" x2="437.7657" y2="342.2397">
			<stop  offset="0" style="stop-color:#0F155F"/>
			<stop  offset="1.776189e-02" style="stop-color:#0F155E"/>
			<stop  offset="0.6289" style="stop-color:#0F1545"/>
			<stop  offset="1" style="stop-color:#0F153C"/>
		</linearGradient>
		<path class="st8" d="M247.8,332.6H229v7.5h17.3v6.3H229v9.2h19.7v6.3h-26.9v-35.5h26.1V332.6z"/>
		<linearGradient id="SVGID_7_" gradientUnits="userSpaceOnUse" x1="80.7631" y1="345.6917" x2="437.7681" y2="342.5042">
			<stop  offset="0" style="stop-color:#0F155F"/>
			<stop  offset="1.776189e-02" style="stop-color:#0F155E"/>
			<stop  offset="0.6289" style="stop-color:#0F1545"/>
			<stop  offset="1" style="stop-color:#0F153C"/>
		</linearGradient>
		<path class="st9" d="M257.1,326.3h17.2c2.2,0,4,0.3,5.4,0.9c1.4,0.6,2.5,1.4,3.3,2.3c0.8,0.9,1.4,1.9,1.7,2.9c0.3,1.1,0.5,2,0.5,3
			c0,1.3-0.2,2.3-0.5,3.2c-0.3,0.8-0.7,1.5-1.1,2.1c-0.4,0.5-0.9,1-1.4,1.3c-0.5,0.3-0.9,0.5-1.3,0.7c1.1,0.4,2,0.9,2.7,1.5
			s1.3,1.3,1.7,2.1c0.4,0.8,0.7,1.6,0.9,2.4c0.2,0.8,0.2,1.7,0.2,2.6c0,1.4-0.3,2.8-0.8,4c-0.5,1.3-1.3,2.4-2.2,3.3
			c-0.5,0.5-1,0.9-1.6,1.3c-0.6,0.4-1.3,0.7-2.1,1c-0.8,0.3-1.8,0.5-3,0.6c-1.2,0.1-2.7,0.2-4.5,0.2h-15V326.3z M264.2,340.2h8.7
			c1.5,0,2.7-0.3,3.7-0.9c1-0.6,1.5-1.6,1.5-3c0-1.5-0.5-2.5-1.5-3c-1-0.5-2.3-0.8-4-0.8h-8.5V340.2z M264.2,355.7h9.1
			c1.8,0,3.2-0.4,4.2-1.2c1-0.8,1.5-2.1,1.5-4c0-0.8-0.2-1.5-0.5-2c-0.3-0.5-0.7-1-1.2-1.3c-0.5-0.3-1.1-0.6-1.7-0.7
			c-0.6-0.1-1.3-0.2-2-0.2h-9.4V355.7z"/>
		<linearGradient id="SVGID_8_" gradientUnits="userSpaceOnUse" x1="80.7668" y1="346.1019" x2="437.7717" y2="342.9144">
			<stop  offset="0" style="stop-color:#0F155F"/>
			<stop  offset="1.776189e-02" style="stop-color:#0F155E"/>
			<stop  offset="0.6289" style="stop-color:#0F1545"/>
			<stop  offset="1" style="stop-color:#0F153C"/>
		</linearGradient>
		<path class="st10" d="M293.7,344c0-2.8,0.3-5.2,0.9-7.2c0.6-2,1.4-3.7,2.4-5.1c1-1.4,2.1-2.5,3.4-3.3c1.3-0.8,2.5-1.5,3.8-2
			c1.3-0.5,2.5-0.8,3.6-0.9c1.1-0.1,2.1-0.2,2.9-0.2c0.8,0,1.8,0.1,2.9,0.2c1.1,0.1,2.3,0.5,3.6,0.9c1.3,0.5,2.5,1.1,3.8,2
			c1.3,0.8,2.4,2,3.4,3.3c1,1.4,1.8,3.1,2.4,5.1c0.6,2,0.9,4.4,0.9,7.2c0,2.8-0.3,5.2-0.9,7.2c-0.6,2-1.4,3.7-2.4,5.1
			c-1,1.4-2.1,2.5-3.4,3.3c-1.3,0.8-2.5,1.5-3.8,2c-1.3,0.5-2.5,0.8-3.6,0.9c-1.1,0.1-2.1,0.2-2.9,0.2c-0.8,0-1.8-0.1-2.9-0.2
			c-1.1-0.1-2.3-0.5-3.6-0.9c-1.3-0.5-2.5-1.1-3.8-2c-1.3-0.8-2.4-2-3.4-3.3c-1-1.4-1.8-3.1-2.4-5.1S293.7,346.8,293.7,344z
			 M301.1,344c0,2.5,0.3,4.5,0.9,6.1c0.6,1.6,1.4,2.9,2.4,3.8c1,0.9,2,1.6,3.1,1.9c1.1,0.4,2.2,0.5,3.2,0.5c1,0,2.1-0.2,3.2-0.5
			c1.1-0.4,2.2-1,3.1-1.9c1-0.9,1.7-2.2,2.4-3.8c0.6-1.6,0.9-3.7,0.9-6.1s-0.3-4.5-0.9-6.1s-1.4-2.9-2.4-3.8c-1-0.9-2-1.6-3.1-1.9
			c-1.1-0.4-2.2-0.5-3.2-0.5c-1,0-2,0.2-3.2,0.5c-1.1,0.4-2.2,1-3.1,1.9c-1,0.9-1.7,2.2-2.4,3.8C301.4,339.5,301.1,341.6,301.1,344z
			"/>
		<linearGradient id="SVGID_9_" gradientUnits="userSpaceOnUse" x1="80.77" y1="346.4672" x2="437.775" y2="343.2796">
			<stop  offset="0" style="stop-color:#0F155F"/>
			<stop  offset="1.776189e-02" style="stop-color:#0F155E"/>
			<stop  offset="0.6289" style="stop-color:#0F1545"/>
			<stop  offset="1" style="stop-color:#0F153C"/>
		</linearGradient>
		<path class="st11" d="M334.6,344c0-2.8,0.3-5.2,0.9-7.2c0.6-2,1.4-3.7,2.4-5.1c1-1.4,2.1-2.5,3.4-3.3c1.3-0.8,2.5-1.5,3.8-2
			c1.3-0.5,2.5-0.8,3.6-0.9c1.1-0.1,2.1-0.2,2.9-0.2c0.8,0,1.8,0.1,2.9,0.2c1.1,0.1,2.3,0.5,3.6,0.9c1.3,0.5,2.5,1.1,3.8,2
			c1.3,0.8,2.4,2,3.4,3.3c1,1.4,1.8,3.1,2.4,5.1c0.6,2,0.9,4.4,0.9,7.2c0,2.8-0.3,5.2-0.9,7.2s-1.4,3.7-2.4,5.1
			c-1,1.4-2.1,2.5-3.4,3.3c-1.3,0.8-2.5,1.5-3.8,2c-1.3,0.5-2.5,0.8-3.6,0.9c-1.1,0.1-2.1,0.2-2.9,0.2c-0.8,0-1.8-0.1-2.9-0.2
			c-1.1-0.1-2.3-0.5-3.6-0.9c-1.3-0.5-2.5-1.1-3.8-2c-1.3-0.8-2.4-2-3.4-3.3c-1-1.4-1.8-3.1-2.4-5.1
			C334.9,349.2,334.6,346.8,334.6,344z M342,344c0,2.5,0.3,4.5,0.9,6.1c0.6,1.6,1.4,2.9,2.4,3.8c1,0.9,2,1.6,3.1,1.9
			c1.1,0.4,2.2,0.5,3.2,0.5c1,0,2.1-0.2,3.2-0.5c1.1-0.4,2.2-1,3.1-1.9c1-0.9,1.7-2.2,2.4-3.8c0.6-1.6,0.9-3.7,0.9-6.1
			s-0.3-4.5-0.9-6.1s-1.4-2.9-2.4-3.8c-1-0.9-2-1.6-3.1-1.9c-1.1-0.4-2.2-0.5-3.2-0.5c-1,0-2,0.2-3.2,0.5c-1.1,0.4-2.2,1-3.1,1.9
			c-1,0.9-1.7,2.2-2.4,3.8S342,341.6,342,344z"/>
		<linearGradient id="SVGID_10_" gradientUnits="userSpaceOnUse" x1="80.7733" y1="346.8392" x2="437.7783" y2="343.6517">
			<stop  offset="0" style="stop-color:#0F155F"/>
			<stop  offset="1.776189e-02" style="stop-color:#0F155E"/>
			<stop  offset="0.6289" style="stop-color:#0F1545"/>
			<stop  offset="1" style="stop-color:#0F153C"/>
		</linearGradient>
		<path class="st12" d="M385,361.8h-7.4v-35.5h7.4v14.4l13.5-14.4h9.6l-14.5,14.5l15.3,20.9h-9.5l-11-15.6l-3.5,3.6V361.8z"/>
	</g>
	<path class="st13" d="M155.5,168.8c8-17.7,23.1-31.4,41.7-37.6"/>
</g>
</svg>
