<?xml version="1.0" encoding="utf-8"?>
<!-- Generator: Adobe Illustrator 21.0.2, SVG Export Plug-In . SVG Version: 6.00 Build 0)  -->
<svg version="1.1" id="Calque_1" xmlns="http://www.w3.org/2000/svg" xmlns:xlink="http://www.w3.org/1999/xlink" x="0px" y="0px"
	 viewBox="0 0 922 400.5" style="enable-background:new 0 0 922 400.5;" xml:space="preserve">
<style type="text/css">
	.st0{fill:none;stroke:#FFD41D;stroke-width:2.0924;stroke-miterlimit:10;}
	.st1{fill:none;stroke:#000000;stroke-width:3;stroke-miterlimit:10;}
	.st2{fill:none;stroke:#000000;stroke-width:1.7071;stroke-miterlimit:10;}
	.st3{fill:none;stroke:#000000;stroke-width:2.5804;stroke-miterlimit:10;}
	.st4{fill:none;stroke:#FFD41D;stroke-width:3;stroke-miterlimit:10;}
	.st5{fill:none;stroke:#000000;stroke-width:2;stroke-miterlimit:10;}
	.st6{fill:none;stroke:#000000;stroke-width:3.8929;stroke-miterlimit:10;}
	.st7{fill:none;stroke:#000000;stroke-width:2.2152;stroke-miterlimit:10;}
	.st8{fill:none;stroke:#000000;stroke-width:2.5952;stroke-miterlimit:10;}
	.st9{stroke:#000000;stroke-width:2;stroke-miterlimit:10;}
	.st10{fill:none;stroke:#000000;stroke-width:5;stroke-miterlimit:10;}
	.st11{fill:none;stroke:#000000;stroke-width:3;stroke-linecap:round;stroke-miterlimit:10;}
	.st12{fill:none;stroke:#000000;stroke-width:3.677;stroke-miterlimit:10;}
	.st13{fill:none;stroke:#000000;stroke-width:2.0924;stroke-miterlimit:10;}
	.st14{fill:none;stroke:#000000;stroke-width:2.4513;stroke-miterlimit:10;}
	.st15{fill:none;stroke:#FFD41D;stroke-width:3.677;stroke-miterlimit:10;}
	.st16{fill:none;stroke:#000000;stroke-width:5.5;stroke-miterlimit:10;}
	.st17{fill:none;stroke:#000000;stroke-width:8.3125;stroke-miterlimit:10;}
	.st18{fill:none;stroke:#000000;stroke-width:4.9875;stroke-linecap:round;stroke-miterlimit:10;}
	.st19{fill:none;stroke:#FFD41D;stroke-width:5;stroke-miterlimit:10;}
	.st20{stroke:#000000;stroke-width:1.6284;stroke-miterlimit:10;}
	.st21{fill:none;stroke:#000000;stroke-width:5.3;stroke-miterlimit:10;}
	.st22{stroke:#000000;stroke-width:5;stroke-miterlimit:10;}
	.st23{fill:none;stroke:#000000;stroke-width:3.5136;stroke-linecap:round;stroke-miterlimit:10;}
	.st24{fill:none;stroke:#000000;stroke-width:4;stroke-linecap:round;stroke-miterlimit:10;}
	.st25{stroke:#000000;stroke-width:8.4432;stroke-miterlimit:10;}
	.st26{fill:none;stroke:#000000;stroke-width:6.7546;stroke-linecap:round;stroke-miterlimit:10;}
	.st27{stroke:#000000;stroke-width:24.7899;stroke-miterlimit:10;}
	.st28{fill:none;stroke:#000000;stroke-width:19.8319;stroke-linecap:round;stroke-miterlimit:10;}
	.st29{fill:#FFFFFF;stroke:#FFFFFF;stroke-width:4;stroke-miterlimit:10;}
	.st30{stroke:#000000;stroke-width:3;stroke-miterlimit:10;}
	.st31{fill:#FFFFFF;}
	.st32{fill:#FFFFFF;stroke:#FFFFFF;stroke-width:7.418;stroke-miterlimit:10;}
	.st33{fill:none;stroke:#FFFFFF;stroke-width:5.9344;stroke-linecap:round;stroke-miterlimit:10;}
</style>
<path class="st29" d="M307.9,249.7H347v5.4h-44.6v-83.9h5.5V249.7z"/>
<path class="st29" d="M393.9,171.3l33.1,83.9h-5.8l-6.4-16.4c-4.3,1.7-11.6,3.6-22.3,3.6c-10.9,0-18.3-2-22.4-3.7l-6.3,16.5h-5.8
	l32.5-83.9H393.9z M412.7,233.8l-20.5-52.3L372,233.7c0.7,0.2,1.6,0.6,2.5,0.8c3.6,1.2,9.5,2.5,17.9,2.5
	C402.4,237.1,409.1,235.3,412.7,233.8z"/>
<path class="st29" d="M503,225l17.9,30.2h-6.3l-17.4-29.5c-8.1,0.6-16.1-1-20.5-2v31.5h-5.5v-81.5l1.9-0.6
	c1.1-0.4,26.7-8.2,41.4,2.5c6.4,4.8,9.7,12.3,9.7,22.3c0,10-3.2,17.5-9.7,22.3C511,222.6,507.2,224.2,503,225z M511.2,215.8
	c4.9-3.7,7.4-9.7,7.4-17.9c0-8.2-2.5-14.2-7.4-17.9c-10.4-7.6-28.8-3.8-34.6-2.3v40.3C482.5,219.6,500.9,223.5,511.2,215.8z"/>
<path class="st29" d="M563.1,256.2c-14.9,0-27-12.2-27-27.1v-57.4h5.4v57.4c0,12.1,9.8,21.7,21.6,21.7c11.8,0,21.6-9.7,21.6-21.7
	v-57.4h5.4v57.4C590,244,578,256.2,563.1,256.2z"/>
<path class="st29" d="M628.2,256.2c-14.9,0-27-12.2-27-27.1v-57.4h5.4v57.4c0,12.1,9.8,21.7,21.6,21.7c11.8,0,21.6-9.7,21.6-21.7
	v-57.4h5.4v57.4C655.2,244,643.1,256.2,628.2,256.2z"/>
<path class="st29" d="M741.7,237.7c-1.4,2.3-3.1,4.3-5,6.2c-7.5,7.8-17.5,12.3-28.2,12.7h-0.8c-0.2,0-0.5,0-0.7,0
	c-10.7-0.4-20.6-4.9-28.3-12.7c-7.9-8.1-12.3-19-12.3-30.4s4.4-22.3,12.3-30.4c7.6-7.8,17.5-12.3,28.3-12.7h1.6
	c10.6,0.4,20.6,4.9,28.2,12.7c1.9,1.9,3.6,3.9,5,6.2l-5,2.3c-6.6-9.3-17.1-15.4-29-15.6c-19.8,0.4-35.8,17.1-35.8,37.6
	c0,20.5,16,37.2,35.8,37.7c11.9-0.4,22.4-6.4,29-15.8L741.7,237.7z"/>
<path class="st29" d="M809.6,171.3h5.4v83.9h-5.4v-40.8c-4.5,1.8-12.9,4.2-25.3,4.2c-12.4,0-20.6-2.4-25.2-4.2v40.8h-5.5v-83.9h5.5
	v37.1c2.9,1.4,11.1,4.8,25.2,4.8c9.5,0,16.4-1.6,20.4-2.9c2.3-0.7,3.8-1.4,4.9-1.9V171.3z"/>
<path class="st29" d="M878.2,249.8v5.4h-48.9v-83.7h47.5v5.4h-42V219H867v5.5h-32.2v25.3H878.2z"/>
<polygon class="st31" points="147.7,269.7 88.3,235.4 88.3,174.5 96.2,174.5 96.2,230.9 147.7,260.6 199.2,230.9 199.2,174.5 
	207.1,174.5 207.1,235.4 "/>
<g>
	<polygon class="st31" points="170.1,243.2 168.8,244 166.5,245.3 165.2,246.1 145.2,234.5 145.2,174.5 150.2,174.5 150.2,231.7 	
		"/>
	<path class="st31" d="M148.8,232.5v-58h-2.3v59.3l20,11.5l2.3-1.3L148.8,232.5z M151.5,231v-56.5h-7.6v60.9l20,11.5h0l1.3-0.8
		l1.3-0.8l2.3-1.3l1.3-0.8l1.3-0.8L151.5,231z"/>
</g>
<g>
	<polygon class="st31" points="261.1,174.5 261.1,234.5 203.1,268 181.4,255.5 182.7,254.7 185,253.4 186.3,252.6 203.1,262.3 
		256.1,231.7 256.1,174.5 	"/>
	<path class="st31" d="M254.8,174.5V231l-51.7,29.8l-15.5-8.9l-1.3,0.8l-1.3,0.8l18.2,10.5l54.3-31.3v-55.4h2.3v56.6l-56.6,32.7
		l-20.4-11.8l-1.3,0.8l-1.3,0.8l23.1,13.3l59.3-34.2v-60.9H254.8z"/>
</g>
<line class="st32" x1="146.5" y1="193.2" x2="199.2" y2="193.2"/>
<line class="st32" x1="146.5" y1="212.1" x2="199.2" y2="212.1"/>
<circle class="st33" cx="159.1" cy="157" r="6.6"/>
<circle class="st33" cx="192.6" cy="157" r="6.6"/>
<circle class="st31" cx="258.6" cy="174.5" r="3.8"/>
<circle class="st31" cx="203.2" cy="174.4" r="3.9"/>
<circle class="st31" cx="147.7" cy="175" r="3.8"/>
<circle class="st31" cx="92.2" cy="174.4" r="3.9"/>
</svg>
