<?xml version="1.0" encoding="utf-8"?>
<!-- Generator: Adobe Illustrator 21.0.2, SVG Export Plug-In . SVG Version: 6.00 Build 0)  -->
<svg version="1.1" id="Calque_1" xmlns="http://www.w3.org/2000/svg" xmlns:xlink="http://www.w3.org/1999/xlink" x="0px" y="0px"
	 viewBox="0 0 1150.7 297.8" style="enable-background:new 0 0 1150.7 297.8;" xml:space="preserve">
<style type="text/css">
	.st0{fill:#FFFFFF;}
	.st1{stroke:#E8C600;stroke-width:6;stroke-miterlimit:10;}
	.st2{fill:#E8C600;}
	.st3{fill:#1B1B1D;}
	.st4{stroke:#000000;stroke-miterlimit:10;}
	.st5{fill:#E8C600;stroke:#E8C600;stroke-width:0.75;stroke-miterlimit:10;}
	.st6{stroke:#000000;stroke-width:0.7385;stroke-miterlimit:10;}
	.st7{stroke:#000000;stroke-width:6.2021;stroke-miterlimit:10;}
	.st8{fill:none;stroke:#000000;stroke-width:4.9617;stroke-linecap:round;stroke-miterlimit:10;}
	.st9{fill:#E8C600;stroke:#E8C600;stroke-miterlimit:10;}
	.st10{stroke:#000000;stroke-width:1.75;stroke-miterlimit:10;}
	.st11{stroke:#000000;stroke-width:6.1872;stroke-miterlimit:10;}
	.st12{fill:none;stroke:#000000;stroke-width:4.9498;stroke-linecap:round;stroke-miterlimit:10;}
	.st13{fill:none;stroke:#000000;stroke-width:5;stroke-linecap:round;stroke-miterlimit:10;}
	.st14{stroke:#FFFFFF;stroke-width:6;stroke-miterlimit:10;}
	.st15{fill:none;stroke:#FFFFFF;stroke-width:5;stroke-linecap:round;stroke-miterlimit:10;}
	.st16{stroke:#000000;stroke-width:1.1009;stroke-miterlimit:10;}
	.st17{stroke:#FFFFFF;stroke-width:10.1159;stroke-miterlimit:10;}
	.st18{fill:none;stroke:#FFFFFF;stroke-width:8.4299;stroke-linecap:round;stroke-miterlimit:10;}
</style>
<path class="st0" d="M747.8,99.7c-1.2-1-3-1.7-4.9-1.7c-3.8,0-6.9,2.5-6.9,5.7v45.6c0,2.6-0.4,5.3-1.3,8.1c-0.9,2.8-2.3,5.4-4.3,7.7
	c-2,2.4-4.6,4.3-7.9,5.8c-2.1,1-4.6,1.7-7.4,2c-1.5,1.8-3.1,3.5-5,5.1c-2.5,2-5.2,3.7-8.3,5.1c2.8,0.5,5.6,0.7,8.6,0.7
	c5.5,0,10.7-0.8,15.5-2.4c4.8-1.6,8.9-3.8,12.4-6.7c3.5-2.9,6.3-6.4,8.3-10.3c2-4,3-8.4,3-13.3v-47.3
	C749.8,102.2,749.1,100.8,747.8,99.7z M686.5,157.4c-0.9-2.8-1.3-5.5-1.3-8.1v-45.6c0-3.1-3.1-5.7-6.9-5.7c-3.8,0-6.9,2.5-6.9,5.7
	v47.3c0,4.9,1,9.3,3,13.3c0.9,1.8,2,3.5,3.2,5c3.6-0.2,6.6-0.9,9.2-2.1c1.4-0.6,2.7-1.4,3.9-2.2
	C688.7,162.7,687.3,160.1,686.5,157.4z"/>
<path class="st0" d="M645.9,98.1c3.8,0,6.9,2.5,6.9,5.7v45.6c0,2.6,0.4,5.3,1.3,8.1c0.9,2.8,2.3,5.4,4.3,7.7c2,2.4,4.6,4.3,7.9,5.8
	c3.2,1.5,7.2,2.2,12,2.2c4.8,0,8.8-0.7,12-2.2c3.2-1.5,5.9-3.4,7.9-5.8c2-2.4,3.4-4.9,4.3-7.7c0.9-2.8,1.3-5.5,1.3-8.1v-45.6
	c0-3.1,3.1-5.7,6.9-5.7h0c3.8,0,6.9,2.5,6.9,5.7v47.3c0,4.9-1,9.3-3,13.3c-2,4-4.8,7.4-8.3,10.3c-3.5,2.9-7.7,5.2-12.4,6.7
	c-4.8,1.6-9.9,2.4-15.4,2.4c-5.5,0-10.7-0.8-15.4-2.4c-4.8-1.6-8.9-3.8-12.4-6.7c-3.5-2.9-6.3-6.4-8.3-10.3c-2-4-3-8.4-3-13.3v-47.3
	C639,100.6,642.1,98.1,645.9,98.1L645.9,98.1z"/>
<line class="st17" x1="188.5" y1="121.4" x2="254" y2="121.4"/>
<line class="st17" x1="188.5" y1="145" x2="254" y2="145"/>
<path class="st0" d="M371.1,95.4h18.4v66.6h34.1v17h-52.5V95.4z"/>
<path class="st0" d="M471.3,95.4h15.2l36.4,83.6h-20.8l-7.2-17.7h-32.5l-7,17.7h-20.3L471.3,95.4z M478.4,119.7l-10.1,26h20.4
	L478.4,119.7z"/>
<path class="st0" d="M562.9,95.4h32.3c4.2,0,8.3,0.4,12.1,1.2c3.8,0.8,7.2,2.2,10,4.1c2.9,1.9,5.2,4.5,6.8,7.8
	c1.7,3.3,2.5,7.3,2.5,12.2c0,5.9-1.5,10.9-4.6,15c-3.1,4.1-7.6,6.7-13.5,7.8l21.2,35.3h-22.1l-17.5-33.4h-9.1v33.4h-18.4V95.4z
	 M581.3,129.9h10.9c1.7,0,3.4-0.1,5.3-0.2c1.8-0.1,3.5-0.5,5-1.1c1.5-0.6,2.7-1.5,3.7-2.8c1-1.3,1.5-3,1.5-5.3
	c0-2.1-0.4-3.8-1.3-5.1c-0.9-1.3-2-2.2-3.3-2.9c-1.3-0.7-2.9-1.1-4.6-1.4c-1.7-0.2-3.4-0.4-5.1-0.4h-12V129.9z"/>
<path class="st0" d="M821.4,117.1c-1.8-2.2-4-3.9-6.7-5.1c-2.6-1.2-5.7-1.8-9.1-1.8c-3.5,0-6.7,0.7-9.6,2c-3,1.3-5.5,3.2-7.7,5.6
	c-2.2,2.4-3.9,5.3-5.1,8.6s-1.8,6.9-1.8,10.7c0,3.9,0.6,7.5,1.8,10.8c1.2,3.3,2.9,6.1,5,8.5c2.1,2.4,4.6,4.3,7.5,5.6
	c2.9,1.3,6,2,9.3,2c3.8,0,7.1-0.8,10-2.4c2.9-1.6,5.3-3.8,7.2-6.6l15.3,11.4c-3.5,5-8,8.6-13.5,11c-5.4,2.4-11,3.5-16.8,3.5
	c-6.5,0-12.6-1-18.1-3.1c-5.5-2-10.3-5-14.3-8.8c-4-3.8-7.1-8.4-9.4-13.9c-2.2-5.4-3.4-11.5-3.4-18.2c0-6.7,1.1-12.7,3.4-18.2
	c2.2-5.4,5.4-10.1,9.4-13.9c4-3.8,8.8-6.7,14.3-8.8c5.5-2,11.5-3.1,18.1-3.1c2.4,0,4.8,0.2,7.4,0.7c2.6,0.4,5.1,1.1,7.6,2.1
	c2.5,0.9,4.9,2.2,7.1,3.8c2.3,1.6,4.3,3.5,6.1,5.8L821.4,117.1z"/>
<path class="st0" d="M847.6,95.4H866v31.2h35.8V95.4h18.4v83.6h-18.4v-36.1H866v36.1h-18.4V95.4z"/>
<path class="st0" d="M937.9,95.4h56.8v17h-38.4v15.6h36.2v17h-36.2v17h40.5v17h-58.9V95.4z"/>
<path class="st0" d="M258.9,96.4L258.9,96.4c-3.5,0-6.4,2.9-6.4,6.4l0,61.2L190,200.1L138.6,164l0-61.2c0-3.5-2.9-6.4-6.4-6.4h0
	c-3.5,0-6.4,2.9-6.4,6.4l0,65c0,2.2,1.1,4.3,3,5.6l57.8,39.1c2.1,1.4,4.9,1.5,7.1,0.3l68.2-39.4c2.1-1.2,3.4-3.4,3.4-5.8l0-64.7
	C265.3,99.3,262.4,96.4,258.9,96.4z"/>
<path class="st0" d="M221.2,178.5l-12.4,7.2l-21.6-12.5c-2.1-1.2-3.4-3.4-3.4-5.8l0-64.5h12.4l0,61.2L221.2,178.5z"/>
<path class="st0" d="M321.5,102.9v64.8c0,2.2-1.1,4.3-2.9,5.5l-56.2,38.9c-2.1,1.5-5,1.6-7.2,0.3l-26.6-15.3L241,190l17.9,10.3
	l50.2-36.2v-61.2H321.5z"/>
<circle class="st18" cx="204.3" cy="73.2" r="8.2"/>
<circle class="st18" cx="245.8" cy="73.2" r="8.2"/>
<circle class="st0" cx="315.3" cy="102.3" r="6.2"/>
<circle class="st0" cx="190" cy="102.3" r="6.2"/>
</svg>
