<svg id="Calque_1" data-name="Calque 1" xmlns="http://www.w3.org/2000/svg" viewBox="0 0 1015.57 75.11"><defs><style>.cls-1{fill:#e5b900;}.cls-2{fill:none;stroke:#000;stroke-linecap:round;stroke-miterlimit:10;stroke-width:3.67px;}</style></defs><title>logo-inline</title><path class="cls-1" d="M86.28,204.67H56a2.27,2.27,0,1,1,0-4.53h30.3a2.27,2.27,0,1,1,0,4.53Z" transform="translate(-22.06 -173.96)"/><path d="M86.28,209.2H56a2.27,2.27,0,1,1,0-4.53h30.3a2.27,2.27,0,0,1,0,4.53Z" transform="translate(-22.06 -173.96)"/><path d="M86.28,218.27H56a2.27,2.27,0,1,1,0-4.53h30.3a2.27,2.27,0,1,1,0,4.53Z" transform="translate(-22.06 -173.96)"/><path class="cls-1" d="M86.28,213.74H56a2.27,2.27,0,0,1,0-4.53h30.3a2.27,2.27,0,0,1,0,4.53Z" transform="translate(-22.06 -173.96)"/><path class="cls-1" d="M330.82,219.88V194.24c0-1.86-1.82-3.36-4.07-3.36s-4.07,1.5-4.07,3.36v26.69a17.19,17.19,0,0,0,1.78,7.87,24.51,24.51,0,0,0,2.21,3.46,15.28,15.28,0,0,0,5.45-1.27,14.94,14.94,0,0,0,2.3-1.3,15.82,15.82,0,0,1-2.83-5A16.22,16.22,0,0,1,330.82,219.88Z" transform="translate(-22.06 -173.96)"/><path class="cls-1" d="M368,191.86a4.59,4.59,0,0,0-2.88-1c-2.25,0-4.08,1.5-4.08,3.36v25.64a16.2,16.2,0,0,1-.76,4.79,13,13,0,0,1-2.54,4.59,13.41,13.41,0,0,1-4.67,3.43,22.92,22.92,0,0,1-5.58,1.2,14.64,14.64,0,0,1-2.42,2.75,24.27,24.27,0,0,1-5.25,3.19,43.29,43.29,0,0,0,6.12.5,29.22,29.22,0,0,0,9.17-1.4,22.61,22.61,0,0,0,7.38-4,19,19,0,0,0,4.92-6.13,17.19,17.19,0,0,0,1.78-7.87V194.24A3.08,3.08,0,0,0,368,191.86Z" transform="translate(-22.06 -173.96)"/><path d="M307.5,190.89c2.25,0,4.07,1.5,4.07,3.36v25.63a16.3,16.3,0,0,0,.76,4.79,12.91,12.91,0,0,0,2.55,4.58,13.29,13.29,0,0,0,4.67,3.43,19.75,19.75,0,0,0,14.25,0,13.32,13.32,0,0,0,4.67-3.43,12.9,12.9,0,0,0,2.54-4.58,16.3,16.3,0,0,0,.76-4.79V194.24c0-1.86,1.82-3.36,4.07-3.36h0c2.25,0,4.07,1.5,4.07,3.36v26.69a17.24,17.24,0,0,1-1.78,7.88,18.91,18.91,0,0,1-4.92,6.13,22.6,22.6,0,0,1-7.38,4,30.69,30.69,0,0,1-18.32,0,22.57,22.57,0,0,1-7.38-4,18.9,18.9,0,0,1-4.92-6.12,17.25,17.25,0,0,1-1.78-7.87V194.25c0-1.86,1.82-3.36,4.07-3.36Z" transform="translate(-22.06 -173.96)"/><path d="M144.5,190.89h10.92v39.48h20.23v10.08H144.5Z" transform="translate(-22.06 -173.96)"/><path d="M204,190.89h9l21.56,49.56H222.25L218,229.95H198.73l-4.13,10.5h-12Zm4.2,14.42-6,15.4h12.11Z" transform="translate(-22.06 -173.96)"/><path d="M258.26,190.89h19.18a33.83,33.83,0,0,1,7.17.73,17,17,0,0,1,6,2.45,12.23,12.23,0,0,1,4.06,4.62,15.65,15.65,0,0,1,1.5,7.25,14.54,14.54,0,0,1-2.73,8.92,12.29,12.29,0,0,1-8,4.66L298,240.45H284.93l-10.36-19.81h-5.39v19.81H258.26Zm10.92,20.51h6.44q1.47,0,3.11-.11a9.73,9.73,0,0,0,3-.63,5.15,5.15,0,0,0,2.21-1.64,5,5,0,0,0,.88-3.15,5.24,5.24,0,0,0-.77-3,5.14,5.14,0,0,0-2-1.71,8.73,8.73,0,0,0-2.73-.81,22.34,22.34,0,0,0-3-.21h-7.14Z" transform="translate(-22.06 -173.96)"/><path d="M411.59,203.77a10.73,10.73,0,0,0-4-3,13.18,13.18,0,0,0-5.42-1A13.58,13.58,0,0,0,392,204.22a15.49,15.49,0,0,0-3,5.07,19.35,19.35,0,0,0,0,12.78,15.9,15.9,0,0,0,3,5,13.46,13.46,0,0,0,4.44,3.33,12.84,12.84,0,0,0,5.5,1.19,12.31,12.31,0,0,0,6-1.4,11.86,11.86,0,0,0,4.27-3.92l9.1,6.79a19,19,0,0,1-8,6.51,24.7,24.7,0,0,1-9.94,2.1,30.54,30.54,0,0,1-10.71-1.82,24.5,24.5,0,0,1-8.47-5.22,23.63,23.63,0,0,1-5.57-8.22,30.12,30.12,0,0,1,0-21.56,23.64,23.64,0,0,1,5.57-8.23,24.52,24.52,0,0,1,8.47-5.21,30.54,30.54,0,0,1,10.71-1.82,26.23,26.23,0,0,1,4.38.39,23.69,23.69,0,0,1,4.48,1.22,20,20,0,0,1,4.24,2.24,16.88,16.88,0,0,1,3.64,3.43Z" transform="translate(-22.06 -173.96)"/><path d="M427.13,190.89h10.92v18.48h21.21V190.89h10.92v49.56H459.26V219H438.05v21.42H427.13Z" transform="translate(-22.06 -173.96)"/><path d="M480.68,190.89h33.67V201H491.6v9.24h21.49v10.08H491.6v10.08h24v10.08H480.68Z" transform="translate(-22.06 -173.96)"/><circle class="cls-2" cx="40.03" cy="5.4" r="3.57"/><circle class="cls-2" cx="58.12" cy="5.4" r="3.57"/><path d="M64.32,240.45H47.65a25.62,25.62,0,0,1-25.59-25.59v-20.1a3.63,3.63,0,1,1,7.26,0v20.1a18.36,18.36,0,0,0,18.34,18.34H64.32a18.36,18.36,0,0,0,18.34-18.34v-20.1a3.63,3.63,0,1,1,7.26,0v20.1A25.62,25.62,0,0,1,64.32,240.45Z" transform="translate(-22.06 -173.96)"/><path d="M66.88,230.29a17.9,17.9,0,0,1-4.15.48h-6a25.38,25.38,0,0,1-5.58-15.92v-20.1a3.63,3.63,0,1,1,7.26,0v20.1A18.33,18.33,0,0,0,66.88,230.29Z" transform="translate(-22.06 -173.96)"/><path d="M119,194.76v20.1a25.62,25.62,0,0,1-25.6,25.6H76.12a25.52,25.52,0,0,0,9.21-7.25h8.1a18.36,18.36,0,0,0,18.34-18.34v-20.1a3.63,3.63,0,1,1,7.26,0Z" transform="translate(-22.06 -173.96)"/><path d="M86.28,200.13H56a2.27,2.27,0,1,1,0-4.53h30.3a2.27,2.27,0,1,1,0,4.53Z" transform="translate(-22.06 -173.96)"/><path class="cls-1" d="M1004.89,213.29h-30.3a2.27,2.27,0,1,1,0-4.53h30.3a2.27,2.27,0,1,1,0,4.53Z" transform="translate(-22.06 -173.96)"/><path d="M1004.89,217.82h-30.3a2.27,2.27,0,1,1,0-4.53h30.3a2.27,2.27,0,1,1,0,4.53Z" transform="translate(-22.06 -173.96)"/><path d="M1004.89,226.89h-30.3a2.27,2.27,0,0,1,0-4.53h30.3a2.27,2.27,0,1,1,0,4.53Z" transform="translate(-22.06 -173.96)"/><path class="cls-1" d="M1004.89,222.36h-30.3a2.27,2.27,0,1,1,0-4.53h30.3a2.27,2.27,0,1,1,0,4.53Z" transform="translate(-22.06 -173.96)"/><circle class="cls-2" cx="958.64" cy="14.02" r="3.57"/><circle class="cls-2" cx="976.72" cy="14.02" r="3.57"/><path d="M982.92,249.07H966.25a25.62,25.62,0,0,1-25.59-25.59v-22a3.63,3.63,0,0,1,7.26,0v22a18.36,18.36,0,0,0,18.34,18.34h16.67a18.36,18.36,0,0,0,18.34-18.34v-22a3.63,3.63,0,1,1,7.26,0v22A25.62,25.62,0,0,1,982.92,249.07Z" transform="translate(-22.06 -173.96)"/><path d="M985.48,238.91a17.9,17.9,0,0,1-4.15.48h-6a25.38,25.38,0,0,1-5.58-15.92v-22a3.63,3.63,0,0,1,7.26,0v22A18.33,18.33,0,0,0,985.48,238.91Z" transform="translate(-22.06 -173.96)"/><path d="M1037.63,201.51v22a25.62,25.62,0,0,1-25.6,25.6H994.73a25.52,25.52,0,0,0,9.21-7.25h8.1a18.36,18.36,0,0,0,18.34-18.34v-22a3.63,3.63,0,1,1,7.26,0Z" transform="translate(-22.06 -173.96)"/><path d="M1004.89,208.75h-30.3a2.27,2.27,0,1,1,0-4.53h30.3a2.27,2.27,0,1,1,0,4.53Z" transform="translate(-22.06 -173.96)"/></svg>