<?xml version="1.0" encoding="utf-8"?>
<!-- Generator: Adobe Illustrator 21.0.2, SVG Export Plug-In . SVG Version: 6.00 Build 0)  -->
<svg version="1.1" id="Calque_1" xmlns="http://www.w3.org/2000/svg" xmlns:xlink="http://www.w3.org/1999/xlink" x="0px" y="0px"
	 viewBox="0 0 1096 939.8" style="enable-background:new 0 0 1096 939.8;" xml:space="preserve">
<style type="text/css">
	.st0{fill:none;stroke:#FFD41D;stroke-width:2.0924;stroke-miterlimit:10;}
	.st1{fill:none;stroke:#000000;stroke-width:3;stroke-miterlimit:10;}
	.st2{fill:none;stroke:#000000;stroke-width:1.7071;stroke-miterlimit:10;}
	.st3{fill:none;stroke:#000000;stroke-width:2.5804;stroke-miterlimit:10;}
	.st4{fill:none;stroke:#FFD41D;stroke-width:3;stroke-miterlimit:10;}
	.st5{fill:none;stroke:#000000;stroke-width:2;stroke-miterlimit:10;}
	.st6{fill:none;stroke:#000000;stroke-width:3.8929;stroke-miterlimit:10;}
	.st7{fill:none;stroke:#000000;stroke-width:2.2152;stroke-miterlimit:10;}
	.st8{fill:none;stroke:#000000;stroke-width:2.5952;stroke-miterlimit:10;}
	.st9{stroke:#000000;stroke-width:2;stroke-miterlimit:10;}
	.st10{fill:none;stroke:#000000;stroke-width:5;stroke-miterlimit:10;}
	.st11{fill:none;stroke:#000000;stroke-width:3;stroke-linecap:round;stroke-miterlimit:10;}
	.st12{fill:none;stroke:#000000;stroke-width:3.677;stroke-miterlimit:10;}
	.st13{fill:none;stroke:#000000;stroke-width:2.0924;stroke-miterlimit:10;}
	.st14{fill:none;stroke:#000000;stroke-width:2.4513;stroke-miterlimit:10;}
	.st15{fill:none;stroke:#FFD41D;stroke-width:3.677;stroke-miterlimit:10;}
	.st16{fill:none;stroke:#000000;stroke-width:5.5;stroke-miterlimit:10;}
	.st17{fill:none;stroke:#000000;stroke-width:8.3125;stroke-miterlimit:10;}
	.st18{fill:none;stroke:#000000;stroke-width:4.9875;stroke-linecap:round;stroke-miterlimit:10;}
	.st19{fill:none;stroke:#FFD41D;stroke-width:5;stroke-miterlimit:10;}
	.st20{stroke:#000000;stroke-width:1.6284;stroke-miterlimit:10;}
	.st21{fill:none;stroke:#000000;stroke-width:5.3;stroke-miterlimit:10;}
	.st22{stroke:#000000;stroke-width:5;stroke-miterlimit:10;}
	.st23{fill:none;stroke:#000000;stroke-width:3.5136;stroke-linecap:round;stroke-miterlimit:10;}
	.st24{stroke:#000000;stroke-width:3;stroke-miterlimit:10;}
	.st25{stroke:#000000;stroke-width:7;stroke-miterlimit:10;}
	.st26{stroke:#000000;stroke-width:8.4432;stroke-miterlimit:10;}
	.st27{fill:none;stroke:#000000;stroke-width:6.7546;stroke-linecap:round;stroke-miterlimit:10;}
	.st28{stroke:#000000;stroke-width:24.7899;stroke-miterlimit:10;}
	.st29{fill:none;stroke:#000000;stroke-width:19.8319;stroke-linecap:round;stroke-miterlimit:10;}
	.st30{fill:#FFFFFF;stroke:#FFFFFF;stroke-width:4;stroke-miterlimit:10;}
	.st31{fill:#F7F7F7;}
	.st32{fill:#F7F7F7;stroke:#F7F7F7;stroke-width:39.5557;stroke-miterlimit:10;}
	.st33{fill:none;stroke:#F7F7F7;stroke-width:31.6446;stroke-linecap:round;stroke-miterlimit:10;}
	.st34{stroke:#000000;stroke-width:7.418;stroke-miterlimit:10;}
	.st35{fill:none;stroke:#000000;stroke-width:5.9344;stroke-linecap:round;stroke-miterlimit:10;}
	.st36{stroke:#000000;stroke-width:28.1858;stroke-miterlimit:10;}
	.st37{fill:none;stroke:#000000;stroke-width:22.5486;stroke-linecap:round;stroke-miterlimit:10;}
</style>
<polygon class="st31" points="403,804.4 86.4,621.6 86.4,296.6 128.3,296.6 128.3,597.3 403,755.9 677.7,597.3 677.7,296.6 
	719.7,296.6 719.7,621.6 "/>
<g>
	<polygon class="st31" points="522.6,663.2 515.4,667.4 503.4,674.3 496.3,678.4 389.9,617 389.9,296.6 416.1,296.6 416.1,601.9 	
		"/>
	<path class="st31" d="M409,606V296.6h-12v316.2l106.4,61.5l12-7L409,606z M423.3,597.8V296.6h-40.5v324.5l106.4,61.4h0.1l7-4.1
		l7.1-4.1l12-7l7.1-4.1l7.1-4L423.3,597.8z"/>
</g>
<g>
	<polygon class="st31" points="1007.5,296.6 1007.5,617 698.7,795.4 582.7,728.4 589.8,724.3 601.8,717.4 608.9,713.2 698.7,765 
		981.2,601.9 981.2,296.6 	"/>
	<path class="st31" d="M974.1,296.6v301.2l-275.5,159l-82.5-47.7l-7.2,4.1l-7.1,4.1l96.8,55.9L988.4,606V310.9h12v302L698.7,787.1
		l-108.9-62.7l-7.1,4.1l-7.1,4.1l123.1,71l316-182.4V296.6H974.1z"/>
</g>
<line class="st32" x1="396.5" y1="396.3" x2="677.7" y2="396.3"/>
<line class="st32" x1="396.5" y1="497.5" x2="677.7" y2="497.5"/>
<circle class="st33" cx="464.1" cy="203.6" r="35.2"/>
<circle class="st33" cx="642.5" cy="203.6" r="35.2"/>
<circle class="st31" cx="994.4" cy="296.6" r="20.3"/>
<circle class="st31" cx="698.7" cy="296" r="20.9"/>
<circle class="st31" cx="403" cy="296" r="20.9"/>
<circle class="st31" cx="107.3" cy="296" r="20.9"/>
</svg>
